#N canvas 298 99 1049 644 10;
#X obj 205 12 adc~;
#X obj 262 114 fiddle~ 1024 1 20 3;
#X floatatom 292 161 5 0 0 0 - - -;
#X msg 856 98 \; pd dsp 1;
#X obj 861 19 loadbang;
#X obj 866 63 delay 100;
#X obj 243 338 int;
#X msg 325 368 print V\$1!;
#X floatatom 164 255 5 0 0 0 - - -;
#X obj 158 211 - 30;
#X obj 317 408 comport 1 9600;
#X connect 0 0 1 0;
#X connect 0 1 1 0;
#X connect 1 3 2 0;
#X connect 2 0 9 0;
#X connect 4 0 5 0;
#X connect 5 0 3 0;
#X connect 6 0 7 0;
#X connect 7 0 10 0;
#X connect 8 0 6 0;
#X connect 9 0 8 0;
