#N canvas 298 99 1049 644 10;
#X obj 205 12 adc~;
#X obj 144 139 env~;
#X floatatom 141 163 5 0 0 0 - - -;
#X floatatom 103 545 5 0 0 0 - - -;
#X floatatom 49 178 5 0 0 0 - - -;
#X obj 41 152 metro 1;
#X obj 262 114 fiddle~ 1024 1 20 3;
#X floatatom 95 239 5 0 0 0 - - -;
#X obj 42 88 loadbang;
#X obj 464 171 unpack;
#X floatatom 464 221 0 0 0 0 - - -;
#X floatatom 478 198 0 0 0 0 - - -;
#X msg 856 98 \; pd dsp 1;
#X obj 861 19 loadbang;
#X obj 866 63 delay 100;
#X obj 17 531 print;
#X obj 46 416 int;
#X obj 578 283 line~;
#X obj 619 306 snapshot~;
#X floatatom 622 336 0 0 0 0 - - -;
#X obj 645 279 metro 100;
#X obj 645 256 loadbang;
#X obj 686 198 bng 15 250 50 0 empty empty empty 17 7 0 10 -262144
-1 -1;
#X msg 606 365 \$1 2;
#X obj 429 286 int;
#X msg 336 197 print X1!;
#X obj 129 410 pack \$1 \$2;
#X obj 120 486 comport 1 9600;
#X msg 45 109 50;
#X msg 128 446 print V\$1!;
#X obj 409 346 bng 15 250 50 0 empty empty empty 17 7 0 10 -262144
-1 -1;
#X obj 139 294 line~;
#X obj 180 317 snapshot~;
#X floatatom 183 347 0 0 0 0 - - -;
#X obj 206 267 loadbang;
#X obj 247 209 bng 15 250 50 0 empty empty empty 17 7 0 10 -262144
-1 -1;
#X obj 206 290 metro 20;
#X connect 0 0 1 0;
#X connect 0 0 6 0;
#X connect 0 1 6 0;
#X connect 1 0 2 0;
#X connect 5 0 4 0;
#X connect 6 2 9 0;
#X connect 6 3 7 0;
#X connect 7 0 31 0;
#X connect 7 0 16 0;
#X connect 8 0 28 0;
#X connect 9 0 10 0;
#X connect 9 1 11 0;
#X connect 10 0 24 0;
#X connect 10 0 17 0;
#X connect 13 0 14 0;
#X connect 14 0 12 0;
#X connect 16 0 29 0;
#X connect 17 0 18 0;
#X connect 18 0 19 0;
#X connect 20 0 18 0;
#X connect 21 0 20 0;
#X connect 22 0 20 0;
#X connect 23 0 17 0;
#X connect 24 0 26 1;
#X connect 27 0 3 0;
#X connect 27 0 15 0;
#X connect 28 0 4 0;
#X connect 29 0 27 0;
#X connect 31 0 32 0;
#X connect 32 0 33 0;
#X connect 34 0 36 0;
#X connect 35 0 36 0;
#X connect 36 0 32 0;
