#N canvas 122 108 974 554 10;
#X obj 168 78 adc~;
#X obj 144 139 env~;
#X floatatom 141 163 5 0 0 0 - - -, f 5;
#X floatatom 110 382 5 0 0 0 - - -, f 5;
#X msg 83 285 print V\$1!;
#X obj 64 215 -;
#X floatatom 54 180 5 0 0 0 - - -, f 5;
#X floatatom 79 246 5 0 0 0 - - -, f 5;
#X obj 41 152 metro 1;
#X obj 262 114 fiddle~ 1024 1 20 3;
#X floatatom 151 175 5 0 0 0 - - -, f 5;
#X obj 175 274 comport 1 115200;
#X obj 42 88 loadbang;
#X msg 616 339 print P\$1!;
#X obj 464 171 unpack;
#X floatatom 464 221 0 0 0 0 - - -;
#X floatatom 478 198 0 0 0 0 - - -;
#X floatatom 553 182 5 0 0 0 - - -, f 5;
#X obj 576 238 +;
#X obj 650 279 print;
#X msg 45 109 63;
#X msg 666 134 \; pd dsp 1;
#X obj 671 55 loadbang;
#X obj 676 99 delay 100;
#X connect 0 0 1 0;
#X connect 0 0 9 0;
#X connect 0 1 9 0;
#X connect 1 0 2 0;
#X connect 4 0 11 0;
#X connect 5 0 7 0;
#X connect 6 0 5 1;
#X connect 7 0 4 0;
#X connect 8 0 6 0;
#X connect 9 2 14 0;
#X connect 9 3 10 0;
#X connect 10 0 5 0;
#X connect 11 0 3 0;
#X connect 12 0 20 0;
#X connect 13 0 11 0;
#X connect 14 0 15 0;
#X connect 14 1 16 0;
#X connect 15 0 18 0;
#X connect 17 0 18 1;
#X connect 18 0 13 0;
#X connect 20 0 6 0;
#X connect 22 0 23 0;
#X connect 23 0 21 0;
