#N canvas 663 134 974 554 10;
#X obj 168 78 adc~;
#X obj 144 139 env~;
#X floatatom 141 163 5 0 0 0 - - -;
#X floatatom 110 382 5 0 0 0 - - -;
#X msg 83 285 print V\$1!;
#X obj 64 215 -;
#X floatatom 54 180 5 0 0 0 - - -;
#X floatatom 79 246 5 0 0 0 - - -;
#X obj 41 152 metro 1;
#X obj 262 114 fiddle~ 1024 1 20 3;
#X floatatom 151 175 5 0 0 0 - - -;
#X obj 42 88 loadbang;
#X msg 414 387 print P\$1!;
#X obj 464 171 unpack;
#X floatatom 464 221 0 0 0 0 - - -;
#X floatatom 478 198 0 0 0 0 - - -;
#X msg 856 98 \; pd dsp 1;
#X obj 861 19 loadbang;
#X obj 866 63 delay 100;
#X obj 175 274 comport 1 115200;
#X floatatom 547 239 5 0 0 0 - - -;
#X obj 583 209 /;
#X floatatom 625 175 5 0 0 0 - - -;
#X obj 601 113 loadbang;
#X msg 620 137 10;
#X obj 680 122 bng 15 250 50 0 empty empty empty 17 7 0 10 -262144
-1 -1;
#X obj 562 270 mod 10;
#X msg 45 109 55;
#X connect 0 0 1 0;
#X connect 0 0 9 0;
#X connect 0 1 9 0;
#X connect 1 0 2 0;
#X connect 4 0 19 0;
#X connect 5 0 7 0;
#X connect 6 0 5 1;
#X connect 7 0 4 0;
#X connect 8 0 6 0;
#X connect 9 2 13 0;
#X connect 9 3 10 0;
#X connect 10 0 5 0;
#X connect 11 0 27 0;
#X connect 12 0 19 0;
#X connect 13 0 14 0;
#X connect 13 1 15 0;
#X connect 14 0 21 0;
#X connect 17 0 18 0;
#X connect 18 0 16 0;
#X connect 19 0 3 0;
#X connect 20 0 26 0;
#X connect 21 0 20 0;
#X connect 22 0 21 1;
#X connect 23 0 24 0;
#X connect 24 0 22 0;
#X connect 25 0 24 0;
#X connect 26 0 12 0;
#X connect 27 0 6 0;
